<svg width="32" height="32" viewBox="0 0 32 32" fill="none" xmlns="http://www.w3.org/2000/svg">
<path d="M28 17.0533C27.7903 19.3229 26.9385 21.4859 25.5444 23.289C24.1502 25.0922 22.2714 26.4611 20.1277 27.2354C17.9839 28.0097 15.664 28.1575 13.4394 27.6615C11.2147 27.1654 9.17738 26.0461 7.56569 24.4344C5.95399 22.8227 4.83464 20.7853 4.33859 18.5607C3.84255 16.336 3.99034 14.0161 4.76466 11.8724C5.53899 9.72868 6.90783 7.84982 8.711 6.45567C10.5142 5.06152 12.6771 4.20974 14.9467 4C13.6179 5.79769 12.9785 8.0126 13.1448 10.2419C13.311 12.4712 14.2719 14.5667 15.8526 16.1475C17.4333 17.7282 19.5289 18.689 21.7582 18.8553C23.9875 19.0215 26.2024 17.9954 28 16.6667V17.0533Z" fill="#979797" stroke="#979797" stroke-width="2" stroke-linecap="round" stroke-linejoin="round"/>
</svg>
